STARTFONT 2.1
FONT -FreeType-DejaVu Sans Mono-Bold-R-Normal--17-120-100-100-P-87-ISO10646-1
SIZE 24 75 75
FONTBOUNDINGBOX 24 32 0 0
STARTPROPERTIES 20
FOUNDRY "FreeType"
FAMILY_NAME "DejaVu Sans Mono"
WEIGHT_NAME "Bold"
SLANT "R"
SETWIDTH_NAME "Normal"
ADD_STYLE_NAME ""
PIXEL_SIZE 17
POINT_SIZE 120
RESOLUTION_X 100
RESOLUTION_Y 100
SPACING "P"
AVERAGE_WIDTH 87
CHARSET_REGISTRY "ISO10646"
CHARSET_ENCODING "1"
FONT_ASCENT 15
FONT_DESCENT 4
COPYRIGHT "Copyright (c) 2003 by Bitstream, Inc. All Rights Reserved.  DejaVu changes are in public domain  "
_OTF_FONTFILE "DejaVuSansMono-Bold.ttf"
_OTF_PSNAME "DejaVuSansMono-Bold"
_GBDFED_INFO "Edited with gbdfed 1.6."
ENDPROPERTIES
CHARS 20
STARTCHAR 0040
ENCODING 64
SWIDTH 960 0
DWIDTH 24 0
BBX 0 0 0 0
BITMAP
ENDCHAR
STARTCHAR 0041
ENCODING 65
SWIDTH 800 0
DWIDTH 20 0
BBX 19 27 1 3
BITMAP
F807C0
F807C0
F807C0
F807C0
F807C0
F807C0
F807C0
F807C0
F807C0
F807C0
F807C0
F807C0
F807C0
F807C0
F807C0
F807C0
F807C0
F867C0
F8F7C0
F8FFC0
7C7F80
7E3F80
7FFF80
3FFF80
1FFFC0
0FFFE0
01E1E0
ENDCHAR
STARTCHAR 0042
ENCODING 66
SWIDTH 960 0
DWIDTH 24 0
BBX 17 26 2 5
BITMAP
07F000
1FFC00
3FFE00
7FFF00
FFFF00
FC1F80
F80F80
F80F80
F80F80
F80F80
F80F80
F80000
F80000
F80000
FFFF80
FFFF80
FFFF80
FFFF80
FFFF80
F80000
F80000
F80000
F80000
F80000
F80000
F80000
ENDCHAR
STARTCHAR 0043
ENCODING 67
SWIDTH 960 0
DWIDTH 24 0
BBX 19 26 1 5
BITMAP
07F000
1FFC00
7FFE00
7FFF00
FFFF00
FC1F80
F80F80
F80F80
F80F80
F80F80
F80F80
F80F80
F80F80
FC0F80
FFFFE0
7FFFE0
3FFFE0
1FFFE0
07FFE0
000F80
000F80
000F80
000F80
000F80
000F80
000F80
ENDCHAR
STARTCHAR 0044
ENCODING 68
SWIDTH 840 0
DWIDTH 21 0
BBX 20 26 1 5
BITMAP
07F000
1FFC00
7FFE00
7FFF00
FFFF00
FC1F80
F80F80
F80F80
F80F80
F80F80
F80F80
000F80
000F80
000F80
000FF0
000FF0
000FF0
000FF0
000FF0
000F80
000F80
000F80
000F80
000F80
000F80
000F80
ENDCHAR
STARTCHAR 0045
ENCODING 69
SWIDTH 960 0
DWIDTH 24 0
BBX 18 26 2 4
BITMAP
F80000
F80000
F80000
F80000
F80000
F80000
F80000
FFFFC0
FFFFC0
FFFFC0
FFFFC0
F80000
F80000
F80000
F80000
F80F80
F80F80
F80F80
F80F80
F80F80
FC1F80
FE3F00
7FFF00
7FFF00
3FFE00
1FF800
ENDCHAR
STARTCHAR 0046
ENCODING 70
SWIDTH 960 0
DWIDTH 24 0
BBX 19 26 1 5
BITMAP
03F800
0FFE00
1FFF00
3FFF80
7FFF80
7E0FC0
7C07C0
7C07C0
F807E0
F803E0
F803E0
0003E0
0007E0
0007C0
0007C0
0007C0
000F80
000F80
001F00
003F00
7C7C00
7FF800
7FFFC0
7FFFC0
7FFFC0
7FFFC0
ENDCHAR
STARTCHAR 0047
ENCODING 71
SWIDTH 960 0
DWIDTH 24 0
BBX 17 26 2 4
BITMAP
F80000
F80000
F80000
F80000
F80000
F80000
F80000
FFFF80
FFFF80
FFFF80
FFFF80
F80000
F80000
F80000
F80000
F80000
F80000
F80000
F80000
F80000
F80000
F80000
FFFE00
FFFE00
FFFE00
FFFE00
ENDCHAR
STARTCHAR 0048
ENCODING 72
SWIDTH 960 0
DWIDTH 24 0
BBX 17 26 2 5
BITMAP
07F000
1FFC00
3FFE00
7FFF00
FFFF00
FC1F80
F80F80
F80F80
F80F80
F80F80
F80F80
F80000
F80000
F80000
F80000
F80000
F80000
F80000
F80000
F80000
F80000
F80000
FFFF80
FFFF80
FFFF80
FFFF80
ENDCHAR
STARTCHAR 0049
ENCODING 73
SWIDTH 960 0
DWIDTH 24 0
BBX 19 26 1 5
BITMAP
07F800
1FFE00
3FFF00
7FFF00
7C0F80
F80780
F007C0
F007C0
F003C0
F003C0
F003C0
F07FE0
F0FFE0
F1FFE0
F3FFE0
F3F3C0
F3C3C0
F3C3C0
F3C3C0
F3C7C0
F3C7C0
F3C7C0
F3FF80
F3FF80
F1FF00
F0FE00
ENDCHAR
STARTCHAR 004a
ENCODING 74
SWIDTH 960 0
DWIDTH 24 0
BBX 19 26 1 4
BITMAP
000F80
000F80
000F80
000F80
000F80
000F80
000F80
000F80
1FFFE0
3FFFE0
7FFFE0
7FFFE0
FC0F80
F80F80
F80F80
F80F80
F80F80
F80F80
F80F80
F80F80
F81F80
FC3F00
7FFF00
7FFE00
3FFE00
1FF800
ENDCHAR
STARTCHAR 004b
ENCODING 75
SWIDTH 960 0
DWIDTH 24 0
BBX 17 26 2 4
BITMAP
F80000
F80000
F80000
F80000
F80000
F80000
F80000
FFF800
FFFE00
FFFF00
FFFF00
FE3F80
FC1F80
F80F80
F80F80
F80F80
F80F80
F80F80
F80000
F80000
F80000
F80000
F80000
F80000
F80000
F80000
ENDCHAR
STARTCHAR 004c
ENCODING 76
SWIDTH 960 0
DWIDTH 24 0
BBX 15 26 3 4
BITMAP
F800
F800
F800
F800
F800
F800
F800
F800
F800
F800
F800
F800
F800
F800
F800
F800
F800
F800
F800
F800
F800
F800
FFFE
FFFE
FFFE
FFFE
ENDCHAR
STARTCHAR 004d
ENCODING 77
SWIDTH 960 0
DWIDTH 24 0
BBX 19 26 1 4
BITMAP
F80000
F80000
F80000
F80000
F80000
F80000
F80000
FFE3E0
FFE3E0
FFE3E0
FFE3E0
F9E3E0
F9E3E0
F9E3E0
F9E3E0
F9E3E0
F9E3E0
F9E3E0
F9E3E0
F9E3E0
F9E3E0
F9F3E0
F9FFC0
F8FFC0
F8FFC0
F87F80
ENDCHAR
STARTCHAR 004e
ENCODING 78
SWIDTH 960 0
DWIDTH 24 0
BBX 19 26 1 4
BITMAP
F01F80
F0FFE0
F1FFE0
F3FFE0
F7F1E0
FFF800
FFFE00
FFFF00
FFFF80
3E1FC0
7E07C0
7C07E0
7C03E0
7C03E0
FC03E0
FC03E0
FC03E0
FC03E0
7C03E0
7C03E0
7C07E0
7E07C0
3FFFC0
1FFF80
1FFF00
07FE00
ENDCHAR
STARTCHAR 004f
ENCODING 79
SWIDTH 960 0
DWIDTH 24 0
BBX 17 26 2 4
BITMAP
F80000
F80000
F80000
F80000
F80000
F80000
F80000
F80F80
F80F80
F80F80
F80F80
F80F80
F80F80
F80F80
FC1F80
7FFF80
7FFF80
3FFF80
1FFF80
07EF80
000F80
000F80
000F80
000F80
000F80
000F80
ENDCHAR
STARTCHAR 0050
ENCODING 80
SWIDTH 960 0
DWIDTH 24 0
BBX 19 27 1 3
BITMAP
007E00
003E00
003F00
001F80
001F80
000FC0
001FC0
003FE0
00FF80
01FE00
07FC00
0FF000
1FC000
3F8000
7F0000
7E0000
FC0000
FF0000
FFC000
7FF800
3FFE00
0FFF80
01FFE0
007FE0
000FE0
0003E0
000060
ENDCHAR
STARTCHAR 0051
ENCODING 81
SWIDTH 960 0
DWIDTH 24 0
BBX 19 27 1 4
BITMAP
03F800
0FFE00
1FFF00
3FFF80
7FFF80
7E0FC0
7C07C0
FC07C0
F807E0
F807E0
F807E0
0007E0
0007E0
0007C0
0007C0
0F87C0
3FEFC0
7FFF80
7FFF80
7FFF00
F87F00
F87F80
7FFFC0
7FFFC0
3FF7E0
1FE380
000100
ENDCHAR
STARTCHAR 0052
ENCODING 82
SWIDTH 960 0
DWIDTH 24 0
BBX 19 26 1 5
BITMAP
07F000
1FFC00
7FFE00
7FFF00
FFFF00
FC1F80
F80F80
F80F80
F80F80
F80F80
F80F80
000F80
000F80
000F80
000F80
000F80
000F80
000F80
000F80
000F80
000F80
000F80
000FE0
000FE0
000FE0
000FE0
ENDCHAR
STARTCHAR 004c
ENCODING 83
SWIDTH 520 0
DWIDTH 13 0
BBX 3 26 10 4
BITMAP
E0
E0
E0
E0
E0
E0
E0
E0
E0
E0
E0
E0
E0
E0
E0
E0
E0
E0
E0
E0
E0
E0
E0
E0
E0
E0
ENDCHAR
ENDFONT
